<?xml version="1.0" encoding="utf-8"?>
<!-- Generator: Adobe Illustrator 25.2.3, SVG Export Plug-In . SVG Version: 6.00 Build 0)  -->
<svg version="1.1" id="Layer_1" xmlns="http://www.w3.org/2000/svg" xmlns:xlink="http://www.w3.org/1999/xlink" x="0px" y="0px"
	 viewBox="0 0 512 512" style="enable-background:new 0 0 512 512;" xml:space="preserve">
<style type="text/css">
	.st0{fill:#303A43;}
</style>
<g>
	<path d="M128.14,33.84c0.67,0.96,0.39,2.01,0.39,2.98c0.01,52.63,0.01,105.25,0.02,157.88c0,1.54-0.1,3.05-0.61,4.53
		c-7.65,22.28-10.31,45.23-8.79,68.66c1.59,24.5,7.44,47.92,19.59,69.4c20.65,36.5,51.89,59.05,92.46,68.84
		c14.8,3.57,29.92,4.71,45.12,4.26c42.23-1.26,85.84-26.99,105.36-66.8c2.62-5.34,4.8-10.85,6.4-16.57
		c0.44-1.58,1.11-2.17,2.73-2.11c2.76,0.11,5.53,0.03,8.29,0.03c35.02,0,70.05,0,105.07,0c1.21,0,2.43,0,3.68,0
		c0.47,1.09,0.18,1.99,0.01,2.84c-13.64,66.07-49.43,116.34-107.79,150.28c-25.15,14.63-52.28,24.21-80.91,29.37
		c-24.4,4.4-49,5.38-73.74,3.98c-23.6-1.33-46.82-4.96-69.26-12.48C119.34,479.86,73.79,446.1,41.99,394.79
		c-15.84-25.57-26.22-53.33-32.36-82.72c-4.82-23.07-6.6-46.42-5.37-69.92C7.15,186.55,24.71,136.23,59.42,92.3
		c18.29-23.15,40.32-42.07,65.71-57.08C126.05,34.68,126.91,33.87,128.14,33.84z"/>
	<path d="M507.27,198.56c-2.86-19.08-7.63-37.65-14.58-55.66c-19.81-51.34-54.28-89.38-103.39-114.21
		C358.59,13.15,326,4.41,291.81,1.43c-21.98-1.92-43.96-2.02-65.93,0.38c-17.14,1.87-33.95,5.22-50.36,10.52
		c-3.92,1.27-3.47,0.41-3.46,4.8c0.1,39.82-0.11,79.65,0.14,119.47c0.19,30.71-0.01,61.43-0.02,92.14c-0.01,40.34,0,80.68,0,121.01
		c0,0.61,0.03,1.23,0.01,1.84c-0.05,1.16,0.46,1.71,1.64,1.62c0.51-0.04,1.02,0,1.54,0c39.84,0,79.67,0,119.51-0.01
		c4.1,0,8.17-0.41,12.23-0.97c25.73-3.55,50.25-25.44,49.84-57.83c-0.08-6.65-0.01-13.31-0.01-19.96c0-15.36,0.09-30.72-0.04-46.07
		c-0.13-15.09-5.39-28.18-15.89-39.09c-12.21-12.69-27.41-18.16-44.74-18.28c-11.47-0.08-22.94-0.01-34.41-0.01
		c-2.98,0-5.94,0.22-8.85,0.84c-9.48,2.04-17.92,6.28-25.39,12.41c-3.48,2.86-6.69,6.03-10.05,9.03c-0.47,0.42-0.81,1.3-1.83,0.74
		c0-0.88,0-1.79,0-2.71c0-26.11-0.01-52.21,0.01-78.32c0-4.06-0.64-3.44,3.58-4.71c24.56-7.37,49.52-8.73,74.7-4.2
		c19.12,3.44,36.62,10.94,51.95,23.02c23.32,18.39,37.09,42.67,43.47,71.4c0.85,3.83,0.36,3.11,3.84,3.2c0.1,0,0.2,0,0.31,0
		c36.87,0,73.73,0,110.6-0.01c1.01,0,2.04,0.19,3.35-0.31C507.44,200.39,507.41,199.46,507.27,198.56z M217.88,243.65
		c10.45-9.03,20.9-18.07,31.17-27.31c4.28-3.86,8.98-5.7,14.73-5.62c11.46,0.15,22.92,0.04,34.39,0.03
		c5.59-0.01,9.76,2.62,12.93,7.03c1.53,2.13,2.24,4.55,2.24,7.2c-0.02,24.97,0.03,49.93-0.04,74.9
		c-0.02,6.91-5.34,12.97-12.15,14.21c-1.62,0.3-3.25,0.37-4.89,0.37c-12.69-0.01-25.38-0.01-38.07-0.01c-12.9,0-25.79,0-38.69,0
		c-0.72,0-1.43-0.03-2.15,0c-1.17,0.05-1.68-0.5-1.63-1.66c0.03-0.61,0-1.23,0-1.84c0-20.77,0.03-41.54-0.04-62.31
		C215.67,246.51,216.25,245.06,217.88,243.65z"/>
</g>
</svg>
